<?xml version="1.0" encoding="utf-8"?>
<!-- Generator: Adobe Illustrator 26.2.1, SVG Export Plug-In . SVG Version: 6.00 Build 0)  -->
<svg version="1.1" id="Layer_1" xmlns="http://www.w3.org/2000/svg" xmlns:xlink="http://www.w3.org/1999/xlink" x="0px" y="0px"
	 width="512px" height="512px" viewBox="0 0 512 512" style="enable-background:new 0 0 512 512;" xml:space="preserve">
<style type="text/css">
	.st0{fill:url(#XMLID_00000021081580964903070920000001131315018413111181_);}
	.st1{fill:url(#XMLID_00000065058257593361190540000000015014728279453116_);}
	.st2{fill:url(#XMLID_00000016789284836379264270000011120111355959113913_);}
</style>
<g id="XMLID_82_">
	
		<linearGradient id="XMLID_00000054243350739814520420000008972971515231567802_" gradientUnits="userSpaceOnUse" x1="255.6286" y1="392.6772" x2="255.6286" y2="208.0368">
		<stop  offset="0" style="stop-color:#F59A25"/>
		<stop  offset="1" style="stop-color:#F36C29"/>
	</linearGradient>
	<path id="XMLID_253_" style="fill:url(#XMLID_00000054243350739814520420000008972971515231567802_);" d="M255.63,2
		C115.66,2,1.79,115.87,1.79,255.84c0,1.72,0.02,3.44,0.05,5.16c0.03,1.72,0.09,3.44,0.16,5.16c2.55,63.38,29.98,125.3,75.05,169.93
		c44.75,44.32,106.38,71.09,169.32,73.36c1.72,0.06,3.44,0.11,5.17,0.13c0.21,0,0.86,0.01,0.96,0.01c1.05,0.03,2.09,0.08,3.14,0.08
		c139.97,0,253.84-113.87,253.84-253.84C509.47,115.87,395.6,2,255.63,2z M300.19,465.68c12.48-16.7,25.09-40.34,27.43-69.62
		c3.27-40.95-13.76-81.2-50.63-119.64c-24.52-25.57-36.09-50.33-34.37-73.59c1.09-14.75,7.62-27.33,13.12-35.52l68.73,73.62
		l1.12,1.36c53.11,57.07,35.04,117.33,28.23,134.43l-11.71,29.44l21.14-23.59c42.84-47.82,42.34-94.42,34.38-125.08
		c-8.49-32.71-27.2-53.98-29.31-56.31L259.07,84.13l-21.28,16.07c-2.01,1.52-49.39,37.94-54.15,97.55
		c-3.27,40.95,13.76,81.2,50.63,119.64c24.52,25.57,36.09,50.33,34.37,73.59c-1.09,14.74-7.62,27.33-13.12,35.52l-68.73-73.62
		l-1.12-1.36c-53.11-57.07-35.04-117.33-28.23-134.43l11.71-29.44l-21.14,23.59c-42.84,47.82-42.34,94.42-34.38,125.08
		c8.49,32.71,27.2,53.98,29.31,56.31l68.2,73.06C114.13,445.15,41.1,358.88,41.1,255.84c0-118.29,96.24-214.53,214.53-214.53
		c118.29,0,214.53,96.24,214.53,214.53C470.16,358.85,397.17,445.11,300.19,465.68z"/>
	
		<linearGradient id="XMLID_00000032607607788480736120000002574562632139446691_" gradientUnits="userSpaceOnUse" x1="373.5956" y1="319.9126" x2="196.8168" y2="141.8146">
		<stop  offset="0" style="stop-color:#F36C29"/>
		<stop  offset="1" style="stop-color:#AD3424"/>
	</linearGradient>
	<path id="XMLID_135_" style="fill:url(#XMLID_00000032607607788480736120000002574562632139446691_);" d="M255.74,167.31
		l68.73,73.62l1.12,1.36c53.11,57.07,35.04,117.33,28.23,134.43l-11.71,29.44l21.14-23.59c42.84-47.82,42.34-94.42,34.38-125.08
		c-8.49-32.71-27.2-53.98-29.31-56.31l-70.92-75.98C270.12,141.46,255.74,167.31,255.74,167.31z"/>
	
		<linearGradient id="XMLID_00000098914574845063103570000005255253867411910301_" gradientUnits="userSpaceOnUse" x1="143.5088" y1="293.4646" x2="317.7962" y2="417.5784">
		<stop  offset="0" style="stop-color:#F36C29"/>
		<stop  offset="1" style="stop-color:#AD3424"/>
	</linearGradient>
	<path id="XMLID_102_" style="fill:url(#XMLID_00000098914574845063103570000005255253867411910301_);" d="M186.8,352.89l-1.12-1.36
		c-53.11-57.07-35.04-117.33-28.23-134.43l11.71-29.44l-21.14,23.59c-42.84,47.82-42.34,94.42-34.38,125.08
		c8.49,32.71,27.2,53.98,29.31,56.31l68.2,73.06c1.97,0.34,4.03,0.52,6.23,0.7c24.99-16.29,38.16-39.9,38.16-39.9L186.8,352.89z"/>
</g>
</svg>
