<?xml version="1.0" encoding="utf-8"?>
<!-- Generator: Adobe Illustrator 26.2.1, SVG Export Plug-In . SVG Version: 6.00 Build 0)  -->
<svg version="1.1" id="Layer_1" xmlns="http://www.w3.org/2000/svg" xmlns:xlink="http://www.w3.org/1999/xlink" x="0px" y="0px"
	 width="150px" height="100px" viewBox="0 0 150 100" style="enable-background:new 0 0 150 100;" xml:space="preserve">
<style type="text/css">
	.st0{enable-background:new    ;}
</style>
<polygon points="55.7,72.4 20.7,72.4 38.2,42.2 46.7,56.9 38.2,56.9 33.8,64.4 51,64.4 "/>
<polygon points="38.2,12.5 72.8,72.4 64.3,72.4 38.2,27.2 12.1,72.4 3.6,72.4 "/>
<g class="st0">
	<path d="M72.5,54.1c0-10.3,9-19,19.5-19c10.6,0,19.5,8.7,19.5,19s-8.9,19-19.5,19C81.5,73.1,72.5,64.4,72.5,54.1z M103.5,54.1
		c0-6.4-5.2-11.8-11.4-11.8c-6.1,0-11.4,5.5-11.4,11.8c0,6.4,5.2,11.9,11.4,11.9C98.2,65.9,103.5,60.5,103.5,54.1z"/>
	<path d="M115,67l4.5-5.4c3.5,3,7.4,4.8,12.1,4.8c4,0,6-1.8,6-4.1c0-2.6-2.1-3.4-7.8-4.7c-7.8-1.8-13.3-4-13.3-11.1
		c0-6.8,5.6-11.4,13.6-11.4c6,0,10.6,1.9,14.4,5.1l-4.1,5.7c-3.3-2.6-7-4.1-10.5-4.1c-3.4,0-5.4,1.8-5.4,4c0,2.7,2.2,3.5,7.9,4.8
		c7.9,1.8,13.2,4.1,13.2,10.9c0,7-5.3,11.7-14.3,11.7C124.9,73.1,119.2,71,115,67z"/>
</g>
</svg>
